<?xml version="1.0" encoding="utf-8"?>
<!-- Generator: Adobe Illustrator 21.0.0, SVG Export Plug-In . SVG Version: 6.00 Build 0)  -->
<svg version="1.1" id="Layer_1" xmlns="http://www.w3.org/2000/svg" xmlns:xlink="http://www.w3.org/1999/xlink" x="0px" y="0px"
	 viewBox="0 0 225.5 54" style="enable-background:new 0 0 225.5 54;" xml:space="preserve">
<style type="text/css">
	.st0{fill:#FFFFFF;}
</style>
<path class="st0" d="M135,11.3v30c0,0.4,0.3,0.8,0.8,0.8c0.4,0,0.8-0.3,0.8-0.8v-30c0-0.4-0.3-0.8-0.8-0.8
	C135.3,10.5,135,10.9,135,11.3"/>
<g>
	<g>
		<g>
			<path class="st0" d="M69.2,27.7c-0.4-0.7,0.1-1.3,0.1-1.3l5.1-5.2c0.6-0.6-0.3-0.6-0.3-0.6h-4.7c-0.8,0-1.4,0.6-1.4,0.6l-4.7,5
				c-0.6,0.6-0.6-0.2-0.6-0.2V15c0-0.8-0.8-0.8-0.8-0.8h-3.6c-0.8,0-0.8,0.8-0.8,0.8v22.8c0,0.8,0.8,0.8,0.8,0.8h3.6
				c0.8,0,0.8-0.8,0.8-0.8v-4c0-0.8,0.6-1.4,0.6-1.4l1.7-1.6l4.2,7.1c0.4,0.7,1.3,0.7,1.3,0.7H75c0.8,0,0.4-0.7,0.4-0.7L69.2,27.7
				L69.2,27.7z M53.8,37.8V21.3c0-0.8-0.8-0.8-0.8-0.8h-3.6c-0.8,0-0.8,0.8-0.8,0.8v16.5c0,0.8,0.8,0.8,0.8,0.8H53
				C53.8,38.6,53.8,37.8,53.8,37.8L53.8,37.8z M53.7,17.3V15c0,0,0-0.8-0.8-0.8h-3.5c0,0-0.8,0-0.8,0.8v2.4c0,0,0,0.8,0.8,0.8h3.5
				C52.9,18.1,53.7,18.1,53.7,17.3L53.7,17.3z M44.7,37.8V15c0-0.8-0.8-0.8-0.8-0.8h-3.7c-0.8,0-0.8,0.8-0.8,0.8v22.8
				c0,0.8,0.8,0.8,0.8,0.8h3.7C44.7,38.6,44.7,37.8,44.7,37.8L44.7,37.8z M36.4,36.8c0,0,0.5-0.5-0.1-1l-2.9-2.6
				c1.3-2,2.1-4.3,2.1-6.9c0-6.8-5.5-12.2-12.2-12.2c-6.8,0-12.2,5.5-12.2,12.2c0,6.8,5.5,12.2,12.2,12.2c2.5,0,4.8-0.7,6.7-2
				l3.2,2.8c0,0,0.5,0.5,1-0.1L36.4,36.8L36.4,36.8z M30.3,26.4c0,3.9-3.2,7.1-7.1,7.1c-3.9,0-7.1-3.2-7.1-7.1
				c0-3.9,3.2-7.1,7.1-7.1C27.1,19.3,30.3,22.5,30.3,26.4L30.3,26.4z"/>
			<path class="st0" d="M115.7,38.5l-4.5-3.7c1.6-2.5,2.5-5.4,2.5-8.5c0-8.8-7.1-16-16-16c-8.8,0-16,7.1-16,16s7.1,16,16,16
				c3.4,0,6.6-1.1,9.2-2.9l4.8,4c0,0,0.7,0.6,1.3-0.1l2.8-3.4C115.8,39.8,116.4,39.1,115.7,38.5L115.7,38.5z M107.5,26.2
				c0,5.4-4.4,9.8-9.8,9.8c-5.4,0-9.8-4.4-9.8-9.8c0-5.4,4.4-9.8,9.8-9.8C103.1,16.4,107.5,20.8,107.5,26.2L107.5,26.2z"/>
			<path class="st0" d="M91.4,26.2c0-3.5,2.8-6.3,6.3-6.3c3.5,0,6.3,2.8,6.3,6.3c0,3.5-2.8,6.3-6.3,6.3
				C94.2,32.5,91.4,29.7,91.4,26.2L91.4,26.2z"/>
		</g>
	</g>
	<g>
		<path class="st0" d="M115.2,15.4c0-0.8,0.7-1.5,1.5-1.5c0.8,0,1.5,0.7,1.5,1.5c0,0.8-0.7,1.5-1.5,1.5
			C115.9,16.9,115.2,16.3,115.2,15.4 M116.7,14.1c-0.7,0-1.3,0.6-1.3,1.3c0,0.7,0.6,1.3,1.3,1.3c0.7,0,1.3-0.6,1.3-1.3
			C118,14.7,117.5,14.1,116.7,14.1 M116.4,16.3h-0.2v-1.9h0.7c0.3,0,0.6,0.2,0.6,0.5c0,0.3-0.2,0.5-0.4,0.5l0.5,0.8h-0.3l-0.5-0.8
			h-0.4V16.3z M116.4,15.3h0.4c0.2,0,0.4-0.1,0.4-0.3c0-0.2-0.2-0.3-0.4-0.3h-0.4V15.3z"/>
	</g>
</g>
<g>
	<path class="st0" d="M169.6,22.8c-0.2-0.6-0.4-1.2-0.8-1.8s-0.9-1-1.4-1.4c-0.5-0.4-1.1-0.7-1.8-0.9c-0.7-0.2-1.3-0.3-2.1-0.3
		c-1.2,0-2.2,0.2-3.1,0.7c-0.9,0.4-1.6,1-2.2,1.8c-0.6,0.7-1,1.6-1.3,2.6c-0.3,1-0.4,2-0.4,3.1s0.1,2.1,0.4,3.1
		c0.3,1,0.7,1.8,1.3,2.6c0.6,0.7,1.3,1.3,2.2,1.8c0.9,0.4,1.9,0.7,3.1,0.7c0.8,0,1.6-0.1,2.3-0.4c0.7-0.3,1.4-0.7,1.9-1.2
		s1-1.1,1.4-1.8c0.4-0.7,0.6-1.5,0.7-2.3l2.6,0.3c-0.2,1.1-0.6,2.2-1.2,3.1c-0.6,0.9-1.3,1.7-2.1,2.3s-1.7,1.1-2.7,1.5
		c-1,0.4-2,0.5-3.1,0.5c-1.5,0-2.8-0.2-4-0.7c-1.2-0.5-2.2-1.2-3.1-2.1s-1.5-2-1.9-3.2s-0.7-2.6-0.7-4.1c0-1.5,0.2-2.9,0.7-4.1
		c0.4-1.2,1.1-2.3,1.9-3.2s1.9-1.6,3.1-2.1s2.5-0.7,4-0.7c1,0,2,0.1,2.9,0.4c0.9,0.3,1.8,0.6,2.5,1.1s1.4,1.1,2,1.8
		c0.6,0.7,1,1.6,1.3,2.6L169.6,22.8z"/>
	<path class="st0" d="M173.8,29.6c0-1,0.1-1.9,0.4-2.7c0.3-0.8,0.7-1.5,1.2-2.1s1.2-1.1,2-1.4c0.8-0.3,1.7-0.5,2.7-0.5
		c1,0,1.9,0.2,2.7,0.5s1.4,0.8,2,1.4s1,1.3,1.2,2.1c0.3,0.8,0.4,1.7,0.4,2.7s-0.1,1.9-0.4,2.7s-0.7,1.5-1.2,2.1
		c-0.5,0.6-1.2,1.1-2,1.4c-0.8,0.3-1.7,0.5-2.7,0.5c-1,0-1.9-0.2-2.7-0.5c-0.8-0.3-1.4-0.8-2-1.4c-0.5-0.6-1-1.3-1.2-2.1
		S173.8,30.6,173.8,29.6z M176.2,29.6c0,0.5,0.1,1.1,0.2,1.7s0.3,1.1,0.6,1.6s0.7,0.9,1.2,1.2c0.5,0.3,1.2,0.5,2,0.5
		c0.8,0,1.4-0.2,2-0.5c0.5-0.3,0.9-0.7,1.2-1.2s0.5-1,0.6-1.6c0.1-0.6,0.2-1.1,0.2-1.7s-0.1-1.1-0.2-1.7c-0.1-0.6-0.3-1.1-0.6-1.6
		s-0.7-0.9-1.2-1.2c-0.5-0.3-1.2-0.5-2-0.5c-0.8,0-1.4,0.2-2,0.5c-0.5,0.3-0.9,0.7-1.2,1.2s-0.5,1-0.6,1.6
		C176.2,28.5,176.2,29.1,176.2,29.6z"/>
	<path class="st0" d="M188.2,23.1h2.2v2.2h0.1c0.5-0.9,1.1-1.5,1.8-1.8s1.6-0.5,2.7-0.5v2.4c-0.2,0-0.5,0-0.8,0c-0.3,0-0.5,0-0.7,0
		c-0.5,0-1,0.1-1.4,0.3s-0.7,0.5-1,0.8c-0.3,0.3-0.5,0.7-0.6,1.1c-0.1,0.4-0.2,0.8-0.2,1.2v7.2h-2.2V23.1z"/>
	<path class="st0" d="M197.8,30.1c0,0.6,0.1,1.2,0.3,1.8c0.2,0.5,0.4,1,0.7,1.4s0.7,0.7,1.2,1c0.5,0.2,1,0.4,1.7,0.4
		c1.9,0,3.1-1,3.6-2.9l2.2,0.3c-0.4,1.5-1.1,2.5-2.2,3.3s-2.3,1.1-3.7,1.1c-1,0-1.9-0.2-2.6-0.5c-0.8-0.3-1.4-0.8-1.9-1.4
		c-0.5-0.6-0.9-1.3-1.2-2.1c-0.3-0.8-0.4-1.7-0.4-2.6c0-1,0.1-2,0.4-2.8c0.3-0.8,0.6-1.6,1.1-2.2c0.5-0.6,1.1-1.1,1.9-1.4
		c0.8-0.3,1.7-0.5,2.7-0.5c1,0,1.9,0.2,2.6,0.5s1.4,0.8,1.9,1.4c0.5,0.6,0.9,1.3,1.1,2.1c0.3,0.8,0.4,1.7,0.4,2.7v0.5H197.8z
		 M205.2,28.4c-0.1-0.5-0.2-1-0.4-1.5c-0.2-0.5-0.4-0.9-0.8-1.2c-0.3-0.3-0.7-0.6-1.2-0.8c-0.5-0.2-1-0.3-1.6-0.3
		c-0.5,0-1,0.1-1.4,0.3c-0.4,0.2-0.8,0.5-1.1,0.9s-0.5,0.8-0.7,1.2s-0.3,0.9-0.3,1.4H205.2z"/>
</g>
</svg>
