<?xml version="1.0" encoding="utf-8"?>
<!-- Generator: Adobe Illustrator 21.0.0, SVG Export Plug-In . SVG Version: 6.00 Build 0)  -->
<svg version="1.0" id="Layer_1" xmlns="http://www.w3.org/2000/svg" xmlns:xlink="http://www.w3.org/1999/xlink" x="0px" y="0px"
	 width="621.2px" height="192.5px" viewBox="0 0 621.2 192.5" enable-background="new 0 0 621.2 192.5" xml:space="preserve">
<g>
	<path fill="#FFFFFF" d="M337.5,100.9c-2.5-4.1,0.9-7.6,0.9-7.6l29.4-30.4c3.4-3.5-1.5-3.5-1.5-3.5h-27.5c-4.8,0-8.1,3.5-8.1,3.5
		l-27.3,28.9c-3.3,3.5-3.3-1.3-3.3-1.3V27.4c0-4.8-4.8-4.8-4.8-4.8h-20.8c-4.6,0-4.6,4.6-4.6,4.6v132.2c0,4.8,4.8,4.8,4.8,4.8h20.6
		c4.6,0,4.6-4.6,4.6-4.6v-23.2c0-4.8,3.5-8.1,3.5-8.1l9.7-9.1l24.4,41c2.5,4.1,7.3,4.1,7.3,4.1h26.1c4.8,0,2.3-4.1,2.3-4.1
		L337.5,100.9L337.5,100.9z M248.2,159.3V64.1c0-4.8-4.8-4.8-4.8-4.8h-20.8c-4.8,0-4.8,4.8-4.8,4.8v95.3c0,4.8,4.8,4.8,4.8,4.8h20.8
		C248.2,164.2,248.2,159.3,248.2,159.3L248.2,159.3z M247.4,40.8V27.1c0,0,0-4.6-4.6-4.6h-20.4c0,0-4.6,0-4.6,4.6v13.6
		c0,0,0,4.6,4.6,4.6h20.4C242.7,45.4,247.4,45.4,247.4,40.8L247.4,40.8z M195.2,159.3v-132c0-4.8-4.8-4.8-4.8-4.8h-21.2
		c-4.8,0-4.8,4.8-4.8,4.8v132c0,4.8,4.8,4.8,4.8,4.8h21.2C195.2,164.2,195.2,159.3,195.2,159.3L195.2,159.3z M147.4,153.7
		c0,0,2.7-3.1-0.4-5.8L130,133c7.7-11.3,12.1-25,12.1-39.7c0-39.1-31.7-70.9-70.9-70.9c-39.1,0-70.9,31.7-70.9,70.9
		c0,39.1,31.7,70.9,70.9,70.9c14.3,0,27.6-4.3,38.8-11.6l18.7,16.3c0,0,3.1,2.7,5.8-0.4L147.4,153.7L147.4,153.7z M112.1,93.4
		c0,22.6-18.3,40.9-40.9,40.9c-22.6,0-40.9-18.3-40.9-40.9c0-22.6,18.3-40.9,40.9-40.9C93.8,52.4,112.1,70.8,112.1,93.4L112.1,93.4z
		"/>
	<path fill="#FFFFFF" d="M606.3,163.4l-25.9-21.7c9-14.3,14.3-31.2,14.3-49.3c0-51-41.4-92.4-92.4-92.4c-51,0-92.4,41.4-92.4,92.4
		c0,51,41.4,92.4,92.4,92.4c19.8,0,38.1-6.2,53.2-16.8l27.6,23.1c0,0,4.1,3.4,7.5-0.7l16.4-19.5C607,170.9,610.4,166.8,606.3,163.4
		L606.3,163.4z M559.1,92.4c0,31.4-25.4,56.8-56.8,56.8c-31.4,0-56.8-25.4-56.8-56.8c0-31.4,25.4-56.8,56.8-56.8
		C533.7,35.6,559.1,61,559.1,92.4L559.1,92.4z"/>
	<path fill="#FFFFFF" d="M465.9,92.4c0-20.1,16.3-36.4,36.4-36.4c20.1,0,36.4,16.3,36.4,36.4c0,20.1-16.3,36.4-36.4,36.4
		C482.2,128.8,465.9,112.5,465.9,92.4L465.9,92.4z"/>
</g>
<g>
	<path fill="#FFFFFF" d="M603.5,29.6c0-4.9,4-8.9,8.9-8.9c4.9,0,8.9,4,8.9,8.9c0,4.9-4,8.9-8.9,8.9
		C607.5,38.5,603.5,34.5,603.5,29.6z M612.3,22c-4.2,0-7.4,3.4-7.4,7.7c0,4.3,3.2,7.7,7.4,7.7c4.2,0,7.4-3.4,7.4-7.7
		C619.8,25.4,616.6,22,612.3,22z M610.3,35h-1.2V24.2h3.9c1.9,0,3.3,0.9,3.3,3c0,1.7-0.9,2.8-2.6,3l3,4.8h-1.5l-2.9-4.8h-2.2V35z
		 M610.3,29.2h2.4c1.4,0,2.4-0.3,2.4-2c0-1.4-1.1-1.9-2.4-1.9h-2.4V29.2z"/>
</g>
</svg>
