<?xml version="1.0" encoding="utf-8"?>
<!-- Generator: Adobe Illustrator 21.0.0, SVG Export Plug-In . SVG Version: 6.00 Build 0)  -->
<svg version="1.1" id="Layer_1" xmlns="http://www.w3.org/2000/svg" xmlns:xlink="http://www.w3.org/1999/xlink" x="0px" y="0px"
	 viewBox="0 0 221.5 54" style="enable-background:new 0 0 221.5 54;" xml:space="preserve">
<style type="text/css">
	.st0{fill:#FFFFFF;}
</style>
<path class="st0" d="M135,11.3v30c0,0.4,0.3,0.8,0.8,0.8c0.4,0,0.8-0.3,0.8-0.8v-30c0-0.4-0.3-0.8-0.8-0.8
	C135.3,10.5,135,10.9,135,11.3"/>
<g>
	<g>
		<g>
			<path class="st0" d="M69.2,27.7c-0.4-0.7,0.1-1.3,0.1-1.3l5.1-5.2c0.6-0.6-0.3-0.6-0.3-0.6h-4.7c-0.8,0-1.4,0.6-1.4,0.6l-4.7,5
				c-0.6,0.6-0.6-0.2-0.6-0.2V15c0-0.8-0.8-0.8-0.8-0.8h-3.6c-0.8,0-0.8,0.8-0.8,0.8v22.8c0,0.8,0.8,0.8,0.8,0.8h3.6
				c0.8,0,0.8-0.8,0.8-0.8v-4c0-0.8,0.6-1.4,0.6-1.4l1.7-1.6l4.2,7.1c0.4,0.7,1.3,0.7,1.3,0.7H75c0.8,0,0.4-0.7,0.4-0.7L69.2,27.7
				L69.2,27.7z M53.8,37.8V21.3c0-0.8-0.8-0.8-0.8-0.8h-3.6c-0.8,0-0.8,0.8-0.8,0.8v16.5c0,0.8,0.8,0.8,0.8,0.8H53
				C53.8,38.6,53.8,37.8,53.8,37.8L53.8,37.8z M53.7,17.3V15c0,0,0-0.8-0.8-0.8h-3.5c0,0-0.8,0-0.8,0.8v2.4c0,0,0,0.8,0.8,0.8h3.5
				C52.9,18.1,53.7,18.1,53.7,17.3L53.7,17.3z M44.7,37.8V15c0-0.8-0.8-0.8-0.8-0.8h-3.7c-0.8,0-0.8,0.8-0.8,0.8v22.8
				c0,0.8,0.8,0.8,0.8,0.8h3.7C44.7,38.6,44.7,37.8,44.7,37.8L44.7,37.8z M36.4,36.8c0,0,0.5-0.5-0.1-1l-2.9-2.6
				c1.3-2,2.1-4.3,2.1-6.9c0-6.8-5.5-12.2-12.2-12.2c-6.8,0-12.2,5.5-12.2,12.2c0,6.8,5.5,12.2,12.2,12.2c2.5,0,4.8-0.7,6.7-2
				l3.2,2.8c0,0,0.5,0.5,1-0.1L36.4,36.8L36.4,36.8z M30.3,26.4c0,3.9-3.2,7.1-7.1,7.1c-3.9,0-7.1-3.2-7.1-7.1
				c0-3.9,3.2-7.1,7.1-7.1C27.1,19.3,30.3,22.5,30.3,26.4L30.3,26.4z"/>
			<path class="st0" d="M115.7,38.5l-4.5-3.7c1.6-2.5,2.5-5.4,2.5-8.5c0-8.8-7.1-16-16-16c-8.8,0-16,7.1-16,16s7.1,16,16,16
				c3.4,0,6.6-1.1,9.2-2.9l4.8,4c0,0,0.7,0.6,1.3-0.1l2.8-3.4C115.8,39.8,116.4,39.1,115.7,38.5L115.7,38.5z M107.5,26.2
				c0,5.4-4.4,9.8-9.8,9.8c-5.4,0-9.8-4.4-9.8-9.8c0-5.4,4.4-9.8,9.8-9.8C103.1,16.4,107.5,20.8,107.5,26.2L107.5,26.2z"/>
			<path class="st0" d="M91.4,26.2c0-3.5,2.8-6.3,6.3-6.3c3.5,0,6.3,2.8,6.3,6.3c0,3.5-2.8,6.3-6.3,6.3
				C94.2,32.5,91.4,29.7,91.4,26.2L91.4,26.2z"/>
		</g>
	</g>
	<g>
		<path class="st0" d="M115.2,15.4c0-0.8,0.7-1.5,1.5-1.5c0.8,0,1.5,0.7,1.5,1.5c0,0.8-0.7,1.5-1.5,1.5
			C115.9,16.9,115.2,16.3,115.2,15.4 M116.7,14.1c-0.7,0-1.3,0.6-1.3,1.3c0,0.7,0.6,1.3,1.3,1.3c0.7,0,1.3-0.6,1.3-1.3
			C118,14.7,117.5,14.1,116.7,14.1 M116.4,16.3h-0.2v-1.9h0.7c0.3,0,0.6,0.2,0.6,0.5c0,0.3-0.2,0.5-0.4,0.5l0.5,0.8h-0.3l-0.5-0.8
			h-0.4V16.3z M116.4,15.3h0.4c0.2,0,0.4-0.1,0.4-0.3c0-0.2-0.2-0.3-0.4-0.3h-0.4V15.3z"/>
	</g>
</g>
<g>
	<path class="st0" d="M169.6,22.8c-0.6-2.6-3.2-4.4-6.1-4.4c-4.8,0-6.9,3.8-6.9,8c0,4.2,2.1,8,6.9,8c3.3,0,5.9-2.3,6.3-5.7l2.7,0.3
		c-0.9,4.5-4.8,7.4-9,7.4c-6,0-9.7-4.1-9.7-10.1s3.7-10.1,9.7-10.1c4.1,0,7.6,2,8.7,5.9L169.6,22.8z"/>
	<path class="st0" d="M180.1,22.8c4,0,6.3,2.9,6.3,6.8c0,3.9-2.3,6.8-6.3,6.8c-4,0-6.3-2.9-6.3-6.8
		C173.8,25.7,176.2,22.8,180.1,22.8z M180.1,34.6c3.2,0,3.9-2.9,3.9-5c0-2.1-0.8-5-3.9-5c-3.2,0-3.9,2.9-3.9,5
		C176.2,31.7,177,34.6,180.1,34.6z"/>
	<path class="st0" d="M188.2,23.1h2.2v2.2h0.1c1.1-1.8,2.3-2.4,4.6-2.4v2.4c-0.4,0-1.1-0.1-1.5-0.1c-2.1,0-3.1,2-3.1,3.5v7.2h-2.2
		V23.1z"/>
	<path class="st0" d="M197.9,30.1c0,2.6,1.4,4.6,3.9,4.6c1.9,0,3.1-1,3.6-2.9l2.2,0.3c-0.8,2.9-3,4.3-5.9,4.3c-4,0-6.2-2.9-6.2-6.7
		c0-4.2,2-6.9,6.2-6.9c4,0,6,2.9,6,6.7v0.5H197.9z M205.3,28.4c-0.3-2.1-1.4-3.8-3.9-3.8c-2.2,0-3.4,1.9-3.5,3.8H205.3z"/>
</g>
<g>
	<path class="st0" d="M208.3,24.6c0-0.6,0.5-1.1,1.1-1.1c0.6,0,1.1,0.5,1.1,1.1c0,0.6-0.5,1.1-1.1,1.1
		C208.8,25.7,208.3,25.2,208.3,24.6 M209.4,23.6c-0.5,0-1,0.4-1,1c0,0.6,0.4,1,1,1c0.5,0,1-0.4,1-1C210.4,24,210,23.6,209.4,23.6
		 M209.2,25.2H209v-1.4h0.5c0.2,0,0.4,0.1,0.4,0.4c0,0.2-0.1,0.4-0.3,0.4l0.4,0.6h-0.2l-0.4-0.6h-0.3V25.2z M209.2,24.5h0.3
		c0.2,0,0.3,0,0.3-0.3c0-0.2-0.1-0.3-0.3-0.3h-0.3V24.5z"/>
</g>
</svg>
