<svg id="Layer_1" data-name="Layer 1" xmlns="http://www.w3.org/2000/svg" viewBox="0 0 181.58 43.37"><defs><style>.cls-1{fill:#fff}</style></defs><path class="cls-1" d="M146.38 19.65a7.05 7.05 0 0 1 5.19 2.35l-1.37 1.54a5.08 5.08 0 0 0-3.8-1.77c-3.62 0-6 3-6 7.69s2.29 7.8 5.92 7.8a5.53 5.53 0 0 0 4.35-2.12l1.33 1.48a7.29 7.29 0 0 1-5.77 2.76c-4.79 0-8.35-3.66-8.35-9.86s3.62-9.87 8.5-9.87zM159.89 24.59c3.45 0 6.52 2.69 6.52 7.42s-3.07 7.37-6.52 7.37-6.53-2.7-6.53-7.37 3.07-7.42 6.53-7.42zm0 12.82c2.43 0 4.06-2.18 4.06-5.4s-1.63-5.45-4.06-5.45-4.06 2.2-4.06 5.45 1.65 5.4 4.06 5.4zM169.38 24.93h2l.2 2.56h.09c1-1.77 2.41-2.9 4-2.9a3.4 3.4 0 0 1 1.51.29l-.49 2.12a4.14 4.14 0 0 0-1.37-.23c-1.19 0-2.61.87-3.57 3.25V39h-2.37zM184 24.59c3.6 0 5.63 2.58 5.63 6.61a8 8 0 0 1-.09 1.3H180c.17 3 2 5 4.7 5a6.37 6.37 0 0 0 3.51-1.1l.84 1.57a8.43 8.43 0 0 1-4.64 1.45c-3.77 0-6.76-2.76-6.76-7.37s3.09-7.46 6.35-7.46zm3.54 6.35c0-2.87-1.28-4.47-3.48-4.47-2 0-3.77 1.63-4.06 4.47zM66.56 30.85a1.12 1.12 0 0 1 .15-1.32l5.11-5.27c.58-.61-.26-.61-.26-.61H66.8a2.15 2.15 0 0 0-1.42.61l-4.73 5c-.58.61-.58-.23-.58-.23v-11a.82.82 0 0 0-.84-.84h-3.61a.79.79 0 0 0-.81.81v23a.82.82 0 0 0 .84.84h3.58A.79.79 0 0 0 60 41v-4a2.09 2.09 0 0 1 .62-1.41L62.33 34l4.24 7.12a1.58 1.58 0 0 0 1.27.72h4.52c.84 0 .41-.72.41-.72l-6.21-10.27zM51.05 41V24.46a.82.82 0 0 0-.84-.84h-3.62a.82.82 0 0 0-.84.84V41a.82.82 0 0 0 .84.84h3.62a.82.82 0 0 0 .84-.84zm-.14-20.59V18a.79.79 0 0 0-.81-.81h-3.54a.79.79 0 0 0-.81.81v2.37a.79.79 0 0 0 .81.8h3.54a.79.79 0 0 0 .81-.8zM41.85 41V18.08a.82.82 0 0 0-.84-.84h-3.69a.82.82 0 0 0-.84.84V41a.82.82 0 0 0 .84.84H41a.82.82 0 0 0 .84-.84zm-8.3-1a.7.7 0 0 0-.07-1l-3-2.57a12.31 12.31 0 1 0-3.46 3.41l3.24 2.82a.71.71 0 0 0 1-.07L33.55 40zm-6.12-10.46a7.11 7.11 0 1 1-7.11-7.1 7.11 7.11 0 0 1 7.11 7.1zM107.61 40.27l-4-3.32a14.14 14.14 0 1 0-3.82 4l4.21 3.54a.82.82 0 0 0 1.16-.1l2.5-3a.8.8 0 0 0-.1-1.15zm-7.22-10.85a8.68 8.68 0 1 1-8.68-8.68 8.68 8.68 0 0 1 8.68 8.68z" transform="translate(-8.01 -7.86)"/><path class="cls-1" d="M86.15 29.42A5.56 5.56 0 1 1 91.71 35a5.57 5.57 0 0 1-5.56-5.56z" transform="translate(-8.01 -7.86)"/><path class="cls-1" d="M114.45 0h1.08v43.37h-1.08z"/></svg>