<?xml version="1.0" encoding="UTF-8" standalone="no"?>
<svg
   xmlns:dc="http://purl.org/dc/elements/1.1/"
   xmlns:cc="http://creativecommons.org/ns#"
   xmlns:rdf="http://www.w3.org/1999/02/22-rdf-syntax-ns#"
   xmlns:svg="http://www.w3.org/2000/svg"
   xmlns="http://www.w3.org/2000/svg"
   viewBox="0 0 574.97333 168.67999"
   height="168.67999"
   width="574.97333"
   xml:space="preserve"
   id="svg2"
   version="1.1"><metadata
     id="metadata8"><rdf:RDF><cc:Work
         rdf:about=""><dc:format>image/svg+xml</dc:format><dc:type
           rdf:resource="http://purl.org/dc/dcmitype/StillImage" /></cc:Work></rdf:RDF></metadata><defs
     id="defs6" /><g
     transform="matrix(1.3333333,0,0,-1.3333333,0,168.68)"
     id="g10"><g
       transform="scale(0.1)"
       id="g12"><path
         id="path14"
         style="fill:#4d4f56;fill-opacity:1;fill-rule:nonzero;stroke:none"
         d="m 834.805,652.355 c 0,-168.753 -136.797,-305.55 -305.551,-305.55 -168.734,0 -305.543,136.797 -305.543,305.55 0,168.747 136.809,305.54 305.543,305.54 168.754,0 305.551,-136.793 305.551,-305.54 z M 1098.22,202.07 c 0,0 20.21,23.25 -3.03,43.45 L 967.922,356.148 c 57.188,84.532 90.598,186.457 90.598,296.207 0,292.301 -236.961,529.255 -529.266,529.255 C 236.953,1181.61 0,944.656 0,652.355 0,360.047 236.953,123.09 529.254,123.09 c 106.988,0 206.383,31.992 289.644,86.57 L 958.5,88.3008 c 0,0 23.254,-20.2188 43.46,3.039 l 96.26,110.7302 z m 356.68,-42.441 v 985.501 c 0,36.03 -36.03,36.03 -36.03,36.03 h -158.62 c -36.04,0 -36.04,-36.03 -36.04,-36.03 V 159.629 c 0,-36.02 36.04,-36.02 36.04,-36.02 h 158.62 c 36.03,0 36.03,36.02 36.03,36.02 z m 389.6,885.461 v 101.84 c 0,0 0,34.68 -34.68,34.68 H 1657.4 c 0,0 -34.67,0 -34.67,-34.68 v -101.84 c 0,0 0,-34.66 34.67,-34.66 h 152.42 c 0,0 34.68,0 34.68,34.66 z m 5.9,-885.461 v 711.375 c 0,36.035 -36.04,36.035 -36.04,36.035 h -155.59 c -36.04,0 -36.04,-36.035 -36.04,-36.035 V 159.629 c 0,-36.02 36.04,-36.02 36.04,-36.02 h 155.59 c 36.04,0 36.04,36.02 36.04,36.02 z m 667.27,436.414 c -18.65,30.848 6.41,56.758 6.41,56.758 l 219.51,226.844 c 25.06,25.906 -10.98,25.906 -10.98,25.906 h -205.03 c -36.04,0 -60.78,-26.207 -60.78,-26.207 L 2263.13,663.617 c -24.74,-26.211 -24.74,9.828 -24.74,9.828 v 471.685 c 0,36.03 -36.05,36.03 -36.05,36.03 h -155.48 c -34.67,0 -34.67,-34.68 -34.67,-34.68 V 159.629 c 0,-36.02 36.04,-36.02 36.04,-36.02 h 154 c 34.66,0 34.66,34.661 34.66,34.661 v 173.457 c 0,36.035 26.26,60.711 26.26,60.711 l 72.6,68.195 182.3,-306.074 c 18.43,-30.95 54.47,-30.95 54.47,-30.95 h 194.55 c 36.05,0 17.4,30.832 17.4,30.832 l -266.8,441.602 v 0" /><path
         id="path16"
         style="fill:#2a9b41;fill-opacity:1;fill-rule:nonzero;stroke:none"
         d="m 3972.15,657.641 c 0,-206.121 -167.08,-373.231 -373.23,-373.231 -206.14,0 -373.25,167.11 -373.25,373.258 0,206.125 167.11,373.202 373.25,373.202 206.13,0 373.23,-167.077 373.23,-373.229 z M 4282.57,191.09 4112.6,333.707 c 59.28,93.762 93.73,204.805 93.73,323.934 0,335.476 -271.94,607.439 -607.41,607.439 -335.46,0 -607.42,-271.963 -607.42,-607.412 0,-335.445 271.96,-607.4492 607.42,-607.4492 130.14,0 250.67,41.0429 349.52,110.7302 L 4129.69,8.87109 c 0,0 26.94,-22.60159 49.55,4.33981 l 107.67,128.3201 c 0,0 22.62,26.949 -4.34,49.559 v 0" /><path
         id="path18"
         style="fill:#4d4f56;fill-opacity:1;fill-rule:nonzero;stroke:none"
         d="m 3359.66,657.668 c 0,132.121 107.11,239.23 239.26,239.23 132.13,0 239.22,-107.109 239.22,-239.257 0,-132.125 -107.09,-239.254 -239.22,-239.235 -132.15,0 -239.26,107.11 -239.26,239.262 v 0" /><path
         id="path20"
         style="fill:#4d4f56;fill-opacity:1;fill-rule:nonzero;stroke:none"
         d="m 4231,1089.39 h 18.22 c 10.6,0 18.03,2.3 18.03,14.68 0,10.43 -7.95,14.5 -18.03,14.5 H 4231 Z m 0,-43.68 h -8.85 v 80.64 h 29.2 c 13.95,0 24.73,-7.08 24.73,-22.28 0,-12.73 -6.9,-21.21 -19.1,-22.46 l 22.64,-35.9 h -10.96 l -21.4,35.9 H 4231 Z m 15.2,97.44 c -31.3,0 -55.52,-25.47 -55.52,-57.3 0,-32 23.87,-57.29 55.52,-57.29 31.66,0 55.53,25.29 55.53,57.29 0,31.83 -23.87,57.3 -55.53,57.3 z m -66.13,-57.3 c 0,36.6 29.88,66.14 66.13,66.14 36.61,0 66.14,-29.88 66.14,-66.14 0,-36.25 -29.53,-66.14 -66.14,-66.14 -36.25,0 -66.13,29.89 -66.13,66.14" /></g></g></svg>